<?xml version="1.0" encoding="utf-8"?>
<!-- Generator: Adobe Illustrator 25.2.1, SVG Export Plug-In . SVG Version: 6.00 Build 0)  -->
<svg version="1.1" id="Layer_1" xmlns="http://www.w3.org/2000/svg" xmlns:xlink="http://www.w3.org/1999/xlink" x="0px" y="0px"
	 viewBox="0 0 255.9 456" style="enable-background:new 0 0 255.9 456;" xml:space="preserve">
<style type="text/css">
	.st0{fill:#FFFFFF;}
</style>
<path class="st0" d="M64.6,297.1v118.9H79c9.6,0,16.4,1.9,20.5,5.5s6.1,8.5,6.1,14.5c0.2,5.4-2.1,10.7-6.1,14.3
	c-4.1,3.7-10.9,5.6-20.5,5.6H26.7c-9.6,0-16.4-1.9-20.5-5.5c-8-7.7-8.2-20.4-0.5-28.4c0.1-0.1,0.3-0.3,0.4-0.4
	c4-3.7,10.2-5.6,18.7-5.5V260c-7-0.7-12.3-2.8-15.9-6.4c-7.4-8-7.1-20.5,0.8-28.1c4.1-3.7,10.9-5.6,20.5-5.6l43.8,0.2l54.3,120.1
	l53.3-120.3l44.2,0.2c9.6,0,16.5,1.8,20.5,5.4s6.1,8.4,6.1,14.4c0.1,5.1-1.8,10-5.4,13.6c-3.6,3.6-8.9,5.8-15.8,6.4v156.1
	c8.4,0,14.7,1.9,18.7,5.6c4,3.7,6.2,9,6,14.4c0.2,5.4-2.1,10.7-6.1,14.3c-4.1,3.7-10.9,5.6-20.5,5.6h-52.6c-9.5,0-16.3-1.9-20.3-5.5
	c-4.1-3.7-6.3-9-6.1-14.5c-0.2-5.4,2.1-10.7,6.1-14.3c4.1-3.7,10.9-5.6,20.3-5.5h14.6v-119l-45.7,102.8h-34.6L64.6,297.1z"/>
<path class="st0" d="M49.8,24.7h156.1c0.1-8.4,2-14.7,5.7-18.7c7.8-7.9,20.5-8.1,28.4-0.3c0.1,0.1,0.3,0.3,0.4,0.4
	c3.7,4.1,5.5,10.9,5.5,20.5l-0.2,83.5c0,13-2.5,25.9-7.2,38.1c-4.8,12.4-10.9,22.3-18.3,29.9c-5.6,5.7-13.2,11.6-23,17.8
	c-9,5.8-18.8,10.5-29,13.9c-9.6,3.1-21.3,4.7-35.2,4.7h-19c-16.9,0-31.8-2.9-44.9-8.6s-23.7-13.2-31.9-22.5s-14.3-18-18.2-26.2
	c-6.1-13-9.1-29.8-9.1-50.4V26.7c0-9.6,1.8-16.4,5.5-20.5C19.2,2,24.5-0.2,30,0c5.5-0.2,10.7,2.1,14.4,6.1
	C48.1,10.2,49.9,16.4,49.8,24.7z M49.8,64.6V107c0,15.8,2.3,27.8,6.8,35.8c6,10.5,13.6,18.4,22.8,23.8c9.2,5.3,21.2,8,35.8,8h18.9
	c12.6,0,23.6-2.4,33.1-7.2c14.8-7.5,24.9-16,30.5-25.4s8.3-21.2,8.3-35.3v-42L49.8,64.6z"/>
</svg>
