<?xml version="1.0" encoding="utf-8"?>
<!-- Generator: Adobe Illustrator 25.2.1, SVG Export Plug-In . SVG Version: 6.00 Build 0)  -->
<svg version="1.1" id="Layer_1" xmlns="http://www.w3.org/2000/svg" xmlns:xlink="http://www.w3.org/1999/xlink" x="0px" y="0px"
	 viewBox="0 0 156.4 247.9" style="enable-background:new 0 0 156.4 247.9;" xml:space="preserve">
<style type="text/css">
	.st0{fill:#010101;}
</style>
<g>
	<path d="M9.5,126.6c-0.2-6.1,2.8-10,10.2-10h23.1c0.8,0,1.7,0.2,2.5,0.2c6.4,0.2,10.4,2.3,13.1,9.7c3.6,10.4,13.1,36.7,19.7,54.7
		c6.4-18,16.1-44.3,19.7-54.7c2.8-7.2,6.6-9.5,12.9-9.7c0.6,0,1.7-0.2,2.5-0.2h23.3c7.4,0,10.2,3.8,10,10c0,6.1-2.1,9.5-9.5,9.7
		h-9.3l11.4,91.5h7.2c7.4,0,10.2,3.8,10,10c-0.2,6.1-2.3,9.5-9.7,9.7c-15.9,0.2-34.8,0.2-37.9,0.2c-6.6,0-11-3-11-9.7v-0.4
		c0-5.5,3.2-9.7,8.5-9.7h11c-1.1-8.1-5.5-42.6-8.7-69.9c-7.4,20.3-15.3,42.4-16.3,45.6c-3.2,9.1-5.1,11.4-12.5,11.7h-3
		c-7.6-0.2-9.3-2.3-12.5-11.7c-1.3-3.2-9.3-25.2-16.5-45.6c-3.4,27.3-7.8,61.9-8.7,69.9h11.2c5.1,0,8.5,4.2,8.5,9.7v0.4
		c0,6.8-4.4,9.7-11,9.7c-3.4,0-22,0-38.1-0.2c-7.4-0.2-9.3-3.6-9.5-9.7c-0.2-6.1,2.5-10,10-10h7l11.4-91.5h-9.1
		C11.9,136.2,9.8,132.8,9.5,126.6z"/>
	<path d="M12.9,52.6c0-25.9-0.2-33.7,0-42.8c0.2-7.4,3.4-9.5,9.5-9.7c6.1-0.2,10,2.8,10,10v8.7h91.8V10c0-7.2,3.6-10.2,10-10
		c6.1,0.2,9.3,2.3,9.5,9.7v42.8c0,37.7-26.7,57.4-65.3,57.4h-0.2C39.4,110,12.9,90.3,12.9,52.6z M32.2,40.5v10
		c0,27.5,17,37.3,46,37.3h0.2c29,0,45.8-9.7,45.8-37.3v-10H32.2z"/>
</g>
</svg>
