<?xml version="1.0" encoding="utf-8"?>
<!-- Generator: Adobe Illustrator 25.2.1, SVG Export Plug-In . SVG Version: 6.00 Build 0)  -->
<svg version="1.1" id="Layer_1" xmlns="http://www.w3.org/2000/svg" xmlns:xlink="http://www.w3.org/1999/xlink" x="0px" y="0px"
	 viewBox="0 0 313.5 606" style="enable-background:new 0 0 313.5 606;" xml:space="preserve">
<path d="M301.5,300.2c2.2,1.5,3.9,4.1,5.1,7.9c1.1,3.8,1.7,9.3,1.7,16.6c0,7.3-0.6,12.8-1.7,16.6c-1.1,3.8-2.8,6.4-5.1,7.8
	s-5.4,2.1-9.6,2.1h-14l3.6,201.6h15.6c4.2,0,7.4,0.7,9.6,2.2c2.2,1.5,3.9,4.1,5.1,7.9c1.1,3.8,1.7,9.3,1.7,16.6s-0.6,12.8-1.7,16.6
	c-1.1,3.8-2.8,6.4-5.1,7.8c-2.2,1.4-5.4,2.1-9.6,2.1h-97c-4.2,0-7.4-0.7-9.6-2.1c-2.2-1.4-3.9-4-5.1-7.8c-1.1-3.8-1.7-9.3-1.7-16.6
	s0.6-12.8,1.7-16.6c1.1-3.8,2.8-6.4,5.1-7.9c2.2-1.5,5.4-2.2,9.6-2.2h23.9l-1.6-153.6l-39.2,105.9c-2.2,6.1-5.4,10.3-9.3,12.8
	c-4,2.5-9.6,3.8-16.9,3.8c-7.4,0-13.1-1.3-17.1-3.8c-4-2.5-7.2-6.8-9.6-12.8L90.8,400l-1.6,152.8h24.1c4.2,0,7.4,0.7,9.6,2.2
	c2.2,1.5,3.9,4.1,5.1,7.9c1.1,3.8,1.7,9.3,1.7,16.6s-0.6,12.8-1.7,16.6c-1.1,3.8-2.8,6.4-5.1,7.8c-2.2,1.4-5.4,2.1-9.6,2.1h-97
	c-4.2,0-7.4-0.7-9.6-2.1c-2.2-1.4-3.9-4-5.1-7.8c-1.1-3.8-1.7-9.3-1.7-16.6s0.6-12.8,1.7-16.6c1.1-3.8,2.8-6.4,5.1-7.9
	c2.2-1.5,5.4-2.2,9.6-2.2h15.3l3.9-201.6h-14c-4.2,0-7.4-0.7-9.6-2.1s-3.9-4-5.1-7.8c-1.1-3.8-1.7-9.3-1.7-16.6
	c0-7.3,0.6-12.8,1.7-16.6c1.1-3.8,2.8-6.4,5.1-7.9c2.2-1.5,5.4-2.2,9.6-2.2h73.7c3.6,0,6.6,0.6,9,1.8s4,3.3,5.1,6.2l47.5,127.4
	L204,306c1-2.9,2.7-5,5.1-6.2c2.3-1.2,5.3-1.8,9-1.8h74C296.1,298,299.3,298.7,301.5,300.2z"/>
<path d="M292.8,216.7c-11.9,21.8-29.5,38.5-52.5,50.1c-23.1,11.6-50.9,17.4-83.4,17.4s-60.3-5.8-83.4-17.4
	c-23.1-11.6-40.7-28.3-52.7-50.1s-18-47.8-18-78.1V16.3c0-4.2,0.7-7.4,2.1-9.6s4-3.9,7.8-5.1S21.9,0,29.2,0S42,0.6,45.8,1.7
	s6.4,2.8,7.9,5.1s2.2,5.4,2.2,9.6v25.2h201.6V16.3c0-4.2,0.7-7.4,2.1-9.6s4-3.9,7.8-5.1S276.7,0,284,0s12.8,0.6,16.6,1.7
	c3.8,1.1,6.4,2.8,7.9,5.1c1.5,2.2,2.2,5.4,2.2,9.6v122.2C310.7,168.8,304.8,194.9,292.8,216.7z M58.5,106.4v27
	c0,26.8,8.3,47.1,25,60.7c16.7,13.7,41.1,20.5,73.3,20.5s56.6-6.8,73.2-20.5c16.6-13.7,24.9-33.9,24.9-60.7v-27H58.5z"/>
</svg>
